External Loads File
version=1
nRows=63
nColumns=13
Range=5.000000e-03-10 seconds
endheader
time 	forceRightX 	forceRightY 	forceRightZ 	pointRightX 	pointRightY 	pointRightZ 	forceLeftX 	forceLeftY 	forceLeftZ 	pointLeftX 	pointLeftY 	pointLeftZ 		
0.005000 -2.321686 105.208068 -0.000000 0.402442 0.477206 -0.196606 -0.431017 149.148885 -0.000000 0.222245 0.186130 -0.442064
0.010000 -1.453087 104.639586 -0.000000 0.402422 0.477226 -0.196610 0.407996 150.852592 -0.000000 0.222284 0.186107 -0.442059
0.015000 -0.658850 104.108244 -0.000000 0.402396 0.477235 -0.196606 1.147268 152.319597 -0.000000 0.222312 0.186102 -0.442070
0.020000 0.002820 103.673654 -0.000000 0.402374 0.477251 -0.196616 1.702230 153.417958 -0.000000 0.222352 0.186079 -0.442090
0.025000 0.415697 103.349117 -0.000000 0.402136 0.477737 -0.196526 1.930942 154.143034 -0.000000 0.222275 0.186101 -0.442004
0.030000 0.751318 103.104560 -0.000000 0.402097 0.477811 -0.196522 2.140285 154.570441 -0.000000 0.222277 0.186089 -0.441981
0.035000 0.928673 102.896328 -0.000000 0.402074 0.477855 -0.196531 2.244255 154.786232 -0.000000 0.222295 0.186091 -0.441980
0.040000 0.960184 102.694416 -0.000000 0.402042 0.477866 -0.196533 2.260561 154.840521 -0.000000 0.222307 0.186070 -0.441982
0.045000 0.880112 102.495459 -0.000000 0.402034 0.477895 -0.196548 2.224710 154.774296 -0.000000 0.222320 0.186052 -0.441977
0.050000 0.735062 102.317417 -0.000000 0.402027 0.477900 -0.196550 2.192875 154.654636 -0.000000 0.222323 0.186067 -0.441983
0.055000 0.545784 102.187639 -0.000000 0.402016 0.477908 -0.196537 2.178471 154.569263 -0.000000 0.222328 0.186063 -0.441983
0.060000 0.353080 102.129246 -0.000000 0.402018 0.477920 -0.196547 2.218918 154.583786 -0.000000 0.222316 0.186069 -0.441970
0.065000 0.162622 102.143132 -0.000000 0.402032 0.477923 -0.196554 2.302269 154.710633 -0.000000 0.222294 0.186077 -0.441975
0.070000 -0.035288 102.207405 -0.000000 0.402040 0.477907 -0.196547 2.397041 154.921876 -0.000000 0.222273 0.186085 -0.441949
0.075000 -0.235223 102.297097 -0.000000 0.402057 0.477912 -0.196552 2.496502 155.190330 -0.000000 0.222243 0.186099 -0.441949
0.080000 -0.425174 102.391436 -0.000000 0.402075 0.477914 -0.196544 2.616506 155.514625 -0.000000 0.222203 0.186113 -0.441951
0.085000 -0.597648 102.472804 -0.000000 0.402098 0.477897 -0.196542 2.780028 155.901440 -0.000000 0.222174 0.186138 -0.441941
0.090000 -0.768219 102.532592 -0.000000 0.402107 0.477904 -0.196548 2.965753 156.322932 -0.000000 0.222144 0.186141 -0.441932
0.095000 -0.918716 102.573342 -0.000000 0.402125 0.477894 -0.196539 3.172181 156.711152 -0.000000 0.222114 0.186159 -0.441919
0.100000 -1.056284 102.600560 -0.000000 0.402130 0.477896 -0.196546 3.338057 157.013493 -0.000000 0.222106 0.186178 -0.441920
0.105000 -1.157154 102.611182 -0.000000 0.402140 0.477899 -0.196532 3.466834 157.236534 -0.000000 0.222094 0.186176 -0.441919
0.110000 -1.225507 102.586042 -0.000000 0.402134 0.477888 -0.196547 3.565835 157.429395 -0.000000 0.222094 0.186180 -0.441917
0.115000 -1.289341 102.499664 -0.000000 0.402120 0.477889 -0.196529 3.635614 157.618935 -0.000000 0.222109 0.186169 -0.441908
0.120000 -1.366839 102.346262 -0.000000 0.402111 0.477878 -0.196548 3.667463 157.767441 -0.000000 0.222142 0.186148 -0.441917
0.125000 -1.466316 102.154410 -0.000000 0.402088 0.477906 -0.196549 3.615402 157.798524 -0.000000 0.222175 0.186144 -0.441926
0.130000 -1.569467 101.966193 -0.000000 0.402070 0.477921 -0.196548 3.456164 157.655606 -0.000000 0.222220 0.186116 -0.441928
0.135000 -1.645680 101.806603 -0.000000 0.402051 0.477923 -0.196545 3.210907 157.333017 -0.000000 0.222261 0.186109 -0.441931
0.140000 -1.688895 101.685944 -0.000000 0.402021 0.477921 -0.196543 2.889254 156.859839 -0.000000 0.222313 0.186082 -0.441939
0.145000 -1.670859 101.621377 -0.000000 0.402011 0.477939 -0.196552 2.546229 156.263280 -0.000000 0.222353 0.186067 -0.441941
0.150000 -1.591404 101.635865 -0.000000 0.401988 0.477938 -0.196544 2.205948 155.561317 -0.000000 0.222381 0.186062 -0.441963
0.155000 -1.462025 101.742133 -0.000000 0.401983 0.477948 -0.196546 1.889527 154.785527 -0.000000 0.222414 0.186033 -0.441963
0.160000 -1.286327 101.934421 -0.000000 0.401975 0.477958 -0.196548 1.637239 154.001225 -0.000000 0.222426 0.186013 -0.441980
0.165000 -1.076648 102.191405 -0.000000 0.401982 0.477951 -0.196543 1.473985 153.293021 -0.000000 0.222443 0.186023 -0.441974
0.170000 -0.863253 102.484338 -0.000000 0.401984 0.477947 -0.196559 1.386772 152.727034 -0.000000 0.222442 0.186014 -0.441994
0.175000 -0.652723 102.787092 -0.000000 0.401996 0.477943 -0.196527 1.378584 152.331891 -0.000000 0.222443 0.186039 -0.441977
0.180000 -0.447735 103.077778 -0.000000 0.402013 0.477930 -0.196553 1.439826 152.107269 -0.000000 0.222411 0.186062 -0.441987
0.185000 -0.265661 103.327129 -0.000000 0.402042 0.477919 -0.196554 1.544840 152.046524 -0.000000 0.222379 0.186088 -0.441967
0.190000 -0.130136 103.496261 -0.000000 0.402072 0.477907 -0.196557 1.693579 152.164680 -0.000000 0.222328 0.186116 -0.441973
0.195000 -0.072378 103.560825 -0.000000 0.402108 0.477882 -0.196570 1.896283 152.494137 -0.000000 0.222268 0.186152 -0.441946
0.200000 -0.118316 103.529840 -0.000000 0.402155 0.477867 -0.196556 2.139180 153.033678 -0.000000 0.222208 0.186183 -0.441923
0.205000 -0.265546 103.429820 -0.000000 0.402192 0.477833 -0.196562 2.393904 153.715197 -0.000000 0.222142 0.186227 -0.441913
0.210000 -0.504865 103.282435 -0.000000 0.402235 0.477802 -0.196551 2.613314 154.433783 -0.000000 0.222081 0.186295 -0.441900
0.215000 -0.844497 103.102772 -0.000000 0.402262 0.477797 -0.196558 2.728979 155.092400 -0.000000 0.222048 0.186331 -0.441885
0.220000 -1.235242 102.905885 -0.000000 0.402300 0.477779 -0.196546 2.777187 155.609477 -0.000000 0.222000 0.186359 -0.441876
0.225000 -1.678239 102.712781 -0.000000 0.402314 0.477754 -0.196552 2.734971 155.917081 -0.000000 0.221985 0.186376 -0.441854
0.230000 -2.134590 102.553197 -0.000000 0.402323 0.477737 -0.196557 2.640490 155.967384 -0.000000 0.221967 0.186383 -0.441873
0.235000 -2.569658 102.452424 -0.000000 0.402327 0.477725 -0.196554 2.509983 155.758245 -0.000000 0.221972 0.186411 -0.441864
0.240000 -2.932754 102.421651 -0.000000 0.402334 0.477711 -0.196544 2.361039 155.349814 -0.000000 0.221987 0.186421 -0.441880
0.245000 -3.160246 102.462914 -0.000000 0.402334 0.477709 -0.196537 2.204385 154.833148 -0.000000 0.222008 0.186431 -0.441891
0.250000 -3.195680 102.573188 -0.000000 0.402326 0.477700 -0.196542 2.027145 154.270427 -0.000000 0.222038 0.186430 -0.441890
0.255000 -3.012086 102.743253 -0.000000 0.402323 0.477690 -0.196539 1.802369 153.676836 -0.000000 0.222078 0.186436 -0.441915
0.260000 -2.641353 102.957951 -0.000000 0.402317 0.477690 -0.196539 1.500057 153.058564 -0.000000 0.222107 0.186431 -0.441914
0.265000 -2.152822 103.195075 -0.000000 0.402322 0.477684 -0.196540 1.142185 152.445574 -0.000000 0.222136 0.186427 -0.441920
0.270000 -1.637718 103.425909 -0.000000 0.402319 0.477680 -0.196547 0.769095 151.868136 -0.000000 0.222152 0.186431 -0.441911
0.275000 -1.161244 103.628301 -0.000000 0.402324 0.477660 -0.196546 0.416881 151.315451 -0.000000 0.222167 0.186435 -0.441910
0.280000 -0.761124 103.789302 -0.000000 0.402332 0.477651 -0.196543 0.091985 150.750157 -0.000000 0.222160 0.186438 -0.441916
0.285000 -0.464419 103.892954 -0.000000 0.402341 0.477646 -0.196549 -0.210642 150.167404 -0.000000 0.222160 0.186446 -0.441922
0.290000 -0.277230 103.920620 -0.000000 0.402362 0.477642 -0.196545 -0.453802 149.627242 -0.000000 0.222149 0.186456 -0.441920
0.295000 -0.197457 103.861357 -0.000000 0.402390 0.477630 -0.196550 -0.581088 149.227798 -0.000000 0.222123 0.186487 -0.441921
0.300000 -0.225789 103.713498 -0.000000 0.402420 0.477599 -0.196558 -0.562102 149.050801 -0.000000 0.222078 0.186503 -0.441927
0.305000 -0.354267 103.481454 -0.000000 0.402469 0.477595 -0.196572 -0.394126 149.125138 -0.000000 0.222021 0.186515 -0.441909
0.310000 -0.563017 103.183213 -0.000000 0.402510 0.477580 -0.196578 -0.096549 149.435077 -0.000000 0.221969 0.186553 -0.441903
0.315000 -0.814993 102.862036 -0.000000 0.402548 0.477555 -0.196547 0.314206 149.967706 -0.000000 0.221892 0.186568 -0.441898
